HIERARCHY
ROOT SpineBase
{
  OFFSET 0.000000 0.000000 0.000000
  CHANNELS 6 Xposition Yposition Zposition Zrotation Xrotation Yrotation
  JOINT SpineMid
  {
    OFFSET 0.000000 33.018289 0.000000
    CHANNELS 3 Zrotation Xrotation Yrotation
    JOINT SpineShoulder
    {
      OFFSET -0.142066 24.577988 -0.851050
      CHANNELS 3 Zrotation Xrotation Yrotation
      JOINT Neck
      {
        OFFSET -0.128890 8.155050 -0.627227
        CHANNELS 3 Zrotation Xrotation Yrotation
        JOINT Head
        {
          OFFSET 0.704211 11.769071 0.642616
          CHANNELS 3 Zrotation Xrotation Yrotation
          End Site
          {
            OFFSET 0 0 0
          }
        }
      }
      JOINT ShoulderLeft
      {
        OFFSET -14.285453 -6.259319 -7.503659
        CHANNELS 3 Zrotation Xrotation Yrotation
        JOINT ElbowLeft
        {
          OFFSET -4.337951 -27.474715 1.431672
          CHANNELS 3 Zrotation Xrotation Yrotation
          JOINT WristLeft
          {
            OFFSET -1.361252 -21.209264 8.369342
            CHANNELS 3 Zrotation Xrotation Yrotation
            JOINT HandLeft
            {
              OFFSET 0.184490 -3.058700 1.301950
              CHANNELS 3 Zrotation Xrotation Yrotation
              JOINT HandTipLeft
              {
                OFFSET -1.221449 -6.347455 0.304944
                CHANNELS 3 Zrotation Xrotation Yrotation
                End Site
                {
                  OFFSET 0 0 0
                }
              }
              JOINT ThumbLeft
              {
                OFFSET 0.919228 1.051470 -6.537291
                CHANNELS 3 Zrotation Xrotation Yrotation
                End Site
                {
                  OFFSET 0 0 0
                }
              }
            }
          }
        }
      }
      JOINT ShoulderRight
      {
        OFFSET 15.507451 -5.686750 -1.705280
        CHANNELS 3 Zrotation Xrotation Yrotation
        JOINT ElbowRight
        {
          OFFSET 7.164702 -24.539490 7.635552
          CHANNELS 3 Zrotation Xrotation Yrotation
          JOINT WristRight
          {
            OFFSET -21.231713 -18.082002 -16.792046
            CHANNELS 3 Zrotation Xrotation Yrotation
            JOINT HandRight
            {
              OFFSET -4.619855 -7.444511 -2.449746
              CHANNELS 3 Zrotation Xrotation Yrotation
              JOINT HandTipRight
              {
                OFFSET -4.283688 -8.094419 1.068342
                CHANNELS 3 Zrotation Xrotation Yrotation
                End Site
                {
                  OFFSET 0 0 0
                }
              }
              JOINT ThumbRight
              {
                OFFSET -5.687287 5.337762 -2.063802
                CHANNELS 3 Zrotation Xrotation Yrotation
                End Site
                {
                  OFFSET 0 0 0
                }
              }
            }
          }
        }
      }
    }
  }
  JOINT HipLeft
  {
    OFFSET -7.200465 1.875512 -4.495404
    CHANNELS 3 Zrotation Xrotation Yrotation
    JOINT KneeLeft
    {
      OFFSET 1.215177 -36.147545 -2.939585
      CHANNELS 3 Zrotation Xrotation Yrotation
      JOINT AnkleLeft
      {
        OFFSET -1.542721 -33.950406 -3.356759
        CHANNELS 3 Zrotation Xrotation Yrotation
        JOINT FootLeft
        {
          OFFSET 9.909810 -2.279141 2.603155
          CHANNELS 3 Zrotation Xrotation Yrotation
          End Site
          {
            OFFSET 0 0 0
          }
        }
      }
    }
  }
  JOINT HipRight
  {
    OFFSET 5.269812 1.115863 -2.371011
    CHANNELS 3 Zrotation Xrotation Yrotation
    JOINT KneeRight
    {
      OFFSET 1.372427 -36.143064 -0.878968
      CHANNELS 3 Zrotation Xrotation Yrotation
      JOINT AnkleRight
      {
        OFFSET 1.344639 -32.118728 -1.300241
        CHANNELS 3 Zrotation Xrotation Yrotation
        JOINT FootRight
        {
          OFFSET 1.065820 -2.732952 -12.889320
          CHANNELS 3 Zrotation Xrotation Yrotation
          End Site
          {
            OFFSET 0 0 0
          }
        }
      }
    }
  }
}
MOTION
Frames: 16
Frame Time: 0.033333
74.925598 72.788631 265.305628 -0.230567 -0.182447 -9.581007 0.196986 0.218276 9.580264 -0.000000 0.000000 0.000000 0.618490 1.876968 -0.156133 0.000000 0.000000 0.000000 1.027277 1.150097 -0.138642 -0.398300 -2.025878 0.437078 -10.224603 10.644377 -2.962716 12.737104 -10.881360 5.381159 0.000000 0.000000 0.000000 0.000000 0.000000 0.000000 2.036214 -0.670424 0.446680 -15.695360 14.976542 -2.041276 51.271297 -43.244257 43.467662 6.083469 71.455927 -48.906859 0.000000 0.000000 0.000000 0.000000 0.000000 0.000000 0.196986 0.218276 9.580264 -0.000000 0.000000 0.000000 -0.777212 0.422668 0.986148 0.000000 0.000000 0.000000 1.851295 -0.211591 9.515707 -3.346080 1.315206 0.203583 1.514623 -0.570404 1.194937 0.000000 0.000000 0.000000
74.930234 72.773400 265.291788 -0.213481 -0.162080 -9.546190 0.183646 0.195239 9.545576 -0.000000 0.000000 0.000000 0.517889 1.705299 -0.137956 0.000000 0.000000 0.000000 1.118517 1.226908 -0.147723 -0.242770 -2.412675 0.569241 -11.874536 12.791094 -3.223373 13.023529 -13.788153 6.181062 0.000000 0.000000 0.000000 0.000000 0.000000 0.000000 2.137762 -1.036369 0.378862 -15.907753 15.375741 -1.863213 50.759719 -42.645689 42.293568 2.518366 71.057826 -45.543919 0.000000 0.000000 0.000000 0.000000 0.000000 0.000000 0.183646 0.195239 9.545576 -0.000000 0.000000 0.000000 -0.193417 0.225136 0.765694 0.000000 0.000000 0.000000 1.954227 -0.284403 9.477337 -3.611030 1.434661 0.224914 1.644808 -0.606071 1.322401 0.000000 0.000000 0.000000
74.938413 72.756038 265.279610 -0.196539 -0.148710 -9.521219 0.169234 0.179171 9.520699 -0.000000 0.000000 0.000000 0.462645 1.699111 -0.133721 0.000000 0.000000 0.000000 1.108447 1.227490 -0.148236 -0.541330 -2.153582 0.421402 -9.678265 11.516012 -2.653587 10.349507 -13.170373 4.981710 0.000000 0.000000 0.000000 0.000000 0.000000 0.000000 1.983274 -1.119220 0.307266 -15.695868 15.378535 -1.795028 50.977160 -42.460852 42.229120 1.562683 71.331147 -44.970903 0.000000 0.000000 0.000000 0.000000 0.000000 0.000000 0.169234 0.179171 9.520699 -0.000000 0.000000 0.000000 -0.000000 0.000000 0.000000 0.000000 0.000000 0.000000 2.140504 -0.342653 9.446435 -4.057565 1.566229 0.256473 1.889274 -0.656138 1.361889 0.000000 0.000000 0.000000
74.948103 72.738766 265.270763 -0.183042 -0.140559 -9.536379 0.157226 0.168941 9.535923 -0.000000 0.000000 0.000000 0.412270 1.852964 -0.139968 0.000000 0.000000 0.000000 1.007865 1.150280 -0.139487 -0.601425 -1.860607 0.333624 -8.177283 10.157988 -2.299740 9.164837 -11.598792 4.194643 0.000000 0.000000 0.000000 0.000000 0.000000 0.000000 1.794968 -1.170967 0.233198 -15.479908 15.404154 -1.750770 51.117440 -42.606105 42.586100 2.521846 71.454139 -45.879037 0.000000 0.000000 0.000000 0.000000 0.000000 0.000000 0.157226 0.168941 9.535923 -0.000000 0.000000 0.000000 -0.000000 0.000000 0.000000 0.000000 0.000000 0.000000 2.560393 -0.406660 9.448957 -5.001375 1.833150 0.324620 2.416616 -0.799927 1.330193 0.000000 0.000000 0.000000
74.955019 72.730402 265.260508 -0.174686 -0.130244 -9.585557 0.150559 0.157514 9.585151 -0.000000 0.000000 0.000000 0.425370 1.852610 -0.140873 0.000000 0.000000 0.000000 1.024079 1.134625 -0.136189 -1.021580 -1.136875 0.115912 -4.811998 8.685698 -1.200722 6.580020 -11.159818 2.787194 0.000000 0.000000 0.000000 0.000000 0.000000 0.000000 1.408766 -1.077842 0.136027 -15.073523 15.317124 -1.743126 50.961546 -42.883415 42.966549 3.016731 71.232054 -45.994291 0.000000 0.000000 0.000000 0.000000 0.000000 0.000000 0.150559 0.157514 9.585151 -0.000000 0.000000 0.000000 -0.000000 0.000000 0.000000 0.000000 0.000000 0.000000 2.387096 -0.371853 9.503918 -4.731167 1.709448 0.301473 2.306113 -0.741677 1.330144 0.000000 0.000000 0.000000
74.968686 72.722082 265.261645 -0.161717 -0.130388 -9.609930 0.137681 0.155555 9.609559 -0.000000 0.000000 0.000000 0.507776 1.707860 -0.137417 0.000000 0.000000 0.000000 1.140738 1.218789 -0.145439 -1.137899 -1.221439 0.121175 -1.196596 5.281204 -0.138197 3.079636 -7.080126 0.888894 0.000000 0.000000 0.000000 0.000000 0.000000 0.000000 1.081067 -0.988533 0.056780 -14.728832 15.256533 -1.758153 50.710513 -43.292702 43.478106 1.968836 71.240453 -44.720830 0.000000 0.000000 0.000000 0.000000 0.000000 0.000000 0.137681 0.155555 9.609559 -0.000000 0.000000 0.000000 -0.000000 0.000000 0.000000 0.000000 0.000000 0.000000 2.197021 -0.332997 9.534037 -4.393677 1.571853 0.274289 2.120043 -0.665314 1.423047 0.000000 0.000000 0.000000
74.979295 72.731018 265.254830 -0.147419 -0.123570 -9.624139 0.124685 0.146476 9.623821 -0.000000 0.000000 0.000000 0.568268 1.335260 -0.117511 0.000000 0.000000 0.000000 1.231095 1.285578 -0.152995 -1.227968 -1.288565 0.125373 -0.275316 3.900622 0.129443 3.151192 -5.653220 0.606614 0.000000 0.000000 0.000000 0.000000 0.000000 0.000000 0.652207 -0.818341 -0.031214 -14.346025 15.178452 -1.779416 50.772490 -43.507850 43.870636 4.111821 70.779899 -46.303128 0.000000 0.000000 0.000000 0.000000 0.000000 0.000000 0.124685 0.146476 9.623821 -0.000000 0.000000 0.000000 -0.000000 0.000000 0.000000 0.000000 0.000000 0.000000 1.861238 -0.281220 9.558950 -3.764963 1.331308 0.227053 1.792283 -0.528654 1.480942 0.000000 0.000000 0.000000
74.964176 72.742084 265.232798 -0.170624 -0.103010 -9.574632 0.151114 0.129955 9.574307 -0.000000 0.000000 0.000000 0.708144 1.029135 -0.106595 0.000000 0.000000 0.000000 1.377489 1.417381 -0.169488 -1.373714 -1.421040 0.135411 -1.411679 4.187789 -0.301513 5.262265 -6.077128 1.305544 0.000000 0.000000 0.000000 0.000000 0.000000 0.000000 0.411690 -0.734985 -0.083599 -14.177903 15.220384 -1.807518 50.916826 -43.770029 44.362428 5.506889 70.438391 -47.251754 0.000000 0.000000 0.000000 0.000000 0.000000 0.000000 0.151114 0.129955 9.574307 -0.000000 0.000000 0.000000 -0.000000 0.000000 0.000000 0.000000 0.000000 0.000000 1.521381 -0.259346 9.521352 -2.988317 1.086898 0.175481 1.339081 -0.369683 1.654626 0.000000 0.000000 0.000000
74.942332 72.753653 265.199871 -0.199588 -0.073227 -9.527151 0.184715 0.105251 9.526854 -0.000000 0.000000 0.000000 0.768999 0.738370 -0.091131 0.000000 0.000000 0.000000 1.492645 1.553454 -0.188261 -1.488083 -1.557824 0.147792 -3.664312 6.499298 -0.985397 7.701187 -7.744830 2.350969 0.000000 0.000000 0.000000 0.000000 0.000000 0.000000 -0.000000 0.000000 0.000000 -13.766299 14.662623 -2.129031 50.981396 -43.803045 44.478256 5.833517 69.884455 -47.173448 0.000000 0.000000 0.000000 0.000000 0.000000 0.000000 0.184715 0.105251 9.526854 -0.000000 0.000000 0.000000 -0.000000 0.000000 0.000000 0.000000 0.000000 0.000000 1.214203 -0.262645 9.484818 -2.229883 0.848394 0.128156 0.901594 -0.196380 1.736026 0.000000 0.000000 0.000000
74.900375 72.775459 265.149402 -0.267093 0.005508 -9.485748 0.264349 0.038585 9.485672 -0.000000 0.000000 0.000000 0.916161 0.093714 -0.056407 0.000000 0.000000 0.000000 1.685187 1.750455 -0.214996 -1.679397 -1.756011 0.163511 -5.972678 8.082948 -1.689902 9.528173 -8.003719 3.207138 0.000000 0.000000 0.000000 0.000000 0.000000 0.000000 -0.000000 0.000000 0.000000 -13.831882 14.786072 -2.175079 50.744572 -43.847175 44.416579 6.860846 69.225783 -47.638144 0.000000 0.000000 0.000000 0.000000 0.000000 0.000000 0.264349 0.038585 9.485672 -0.000000 0.000000 0.000000 -0.000000 0.000000 0.000000 0.000000 0.000000 0.000000 1.064805 -0.343625 9.450814 -1.669714 0.702929 0.096529 0.536554 -0.044682 1.918694 0.000000 0.000000 0.000000
74.840049 72.791932 265.081255 -0.323809 0.057086 -9.507563 0.328791 -0.002815 9.507732 -0.000000 0.000000 0.000000 0.890838 -0.366967 -0.023847 0.000000 0.000000 0.000000 2.023719 2.330697 -0.304921 -1.465845 -3.084994 0.510348 -10.129003 11.171144 -2.847085 12.952230 -4.998518 4.085947 0.000000 0.000000 0.000000 0.000000 0.000000 0.000000 -0.000000 0.000000 0.000000 -12.419362 15.055302 -3.640489 45.982733 -43.581118 43.569634 10.006679 67.167147 -48.411893 0.000000 0.000000 0.000000 0.000000 0.000000 0.000000 0.328791 -0.002815 9.507732 -0.000000 0.000000 0.000000 -0.000000 0.000000 0.000000 0.000000 0.000000 0.000000 1.024580 -0.438393 9.474798 -0.614625 0.544142 0.038532 -0.482917 0.179573 2.334625 0.000000 0.000000 0.000000
74.881807 72.797927 265.035743 -0.279030 0.072692 -9.419866 0.287164 -0.026042 9.420108 -0.000000 0.000000 0.000000 0.814045 -0.576498 -0.005862 0.000000 0.000000 0.000000 1.998174 2.409183 -0.319556 -0.800973 -3.581134 0.835856 -14.167641 14.186296 -3.759834 17.998128 -5.770187 6.194351 0.000000 0.000000 0.000000 0.000000 0.000000 0.000000 -0.000000 0.000000 0.000000 -12.662105 14.927691 -3.318105 45.461937 -42.115350 40.903787 5.574621 65.791378 -44.050281 0.000000 0.000000 0.000000 0.000000 0.000000 0.000000 0.287164 -0.026042 9.420108 -0.000000 0.000000 0.000000 -0.000000 0.000000 0.000000 0.000000 0.000000 0.000000 0.287164 -0.026042 9.420108 -0.000000 0.000000 0.000000 -0.453723 0.175549 2.196300 0.000000 0.000000 0.000000
74.790115 72.810534 264.947389 -0.352458 0.071333 -9.731690 0.359444 -0.010728 9.731943 -0.000000 0.000000 0.000000 0.855298 -0.488002 -0.013869 0.000000 0.000000 0.000000 1.781187 2.233849 -0.295677 -0.225202 -3.567202 0.994417 -16.275374 15.941708 -4.128200 20.759759 -6.260839 7.413338 0.000000 0.000000 0.000000 0.000000 0.000000 0.000000 0.564534 -2.295392 -0.479616 -15.526525 16.704609 -0.216392 51.647772 -42.459732 41.614243 -0.277928 67.991225 -41.235534 0.000000 0.000000 0.000000 0.000000 0.000000 0.000000 0.359444 -0.010728 9.731943 -0.000000 0.000000 0.000000 -0.000000 0.000000 0.000000 0.000000 0.000000 0.000000 1.217086 -0.662871 9.689200 -1.561215 1.038117 0.109944 0.486638 -0.107692 1.601184 0.000000 0.000000 0.000000
74.641630 72.811847 264.851509 -0.431525 0.004816 -10.139813 0.425633 0.071229 10.139566 -0.000000 0.000000 0.000000 0.840838 0.186767 -0.058479 0.000000 0.000000 0.000000 1.447653 2.531360 -0.357408 0.908474 -4.343988 1.464003 -20.226127 17.862432 -4.956526 26.206461 -7.021693 9.929217 0.000000 0.000000 0.000000 0.000000 0.000000 0.000000 0.146174 -1.704925 -0.447917 -20.658961 15.164028 5.035056 68.454874 -44.827828 45.928728 -13.705719 73.584748 -34.626892 0.000000 0.000000 0.000000 0.000000 0.000000 0.000000 0.425633 0.071229 10.139566 -0.000000 0.000000 0.000000 -0.000000 0.000000 0.000000 0.000000 0.000000 0.000000 1.877175 -0.709107 10.077377 -2.567738 1.480539 0.180520 0.989773 -0.348241 1.309220 0.000000 0.000000 0.000000
74.535271 72.724988 264.727313 -0.383761 -0.099638 -10.040225 0.360515 0.165014 10.039372 -0.000000 0.000000 0.000000 1.284848 0.847216 -0.130388 0.000000 0.000000 0.000000 1.142136 2.513253 -0.363402 2.259416 -4.484129 1.969721 -25.078779 18.344063 -6.323512 30.950276 -10.620020 13.204877 0.000000 0.000000 0.000000 0.000000 0.000000 0.000000 -1.667050 1.208706 -0.149370 -54.391457 -0.083136 32.563315 169.268966 -45.800288 89.343152 -133.629529 70.772324 55.616779 0.000000 0.000000 0.000000 0.000000 0.000000 0.000000 1.485199 -0.500939 9.933376 -0.993048 0.849889 0.116659 -0.295075 0.275670 0.874488 0.000000 0.000000 0.000000 2.169312 -0.873205 9.960858 -3.191200 1.923425 0.242602 1.585980 -0.594376 -0.080835 0.000000 0.000000 0.000000
74.125424 72.730234 264.570213 -0.545430 -0.307847 -11.343823 0.474235 0.409103 11.340665 -0.000000 0.000000 0.000000 1.984934 1.617632 -0.233278 0.000000 0.000000 0.000000 0.681414 2.013309 -0.294923 2.615044 -3.621309 1.823690 -24.235229 15.354628 -6.840443 30.918916 -11.992134 13.293180 0.000000 0.000000 0.000000 0.000000 0.000000 0.000000 -2.804327 4.395655 0.529002 -39.417141 -72.449469 92.877508 -87.645600 -4.542691 143.021328 -154.555708 40.853447 44.829221 0.000000 0.000000 0.000000 0.000000 0.000000 0.000000 3.047177 -0.696089 11.106043 -3.196517 0.911251 0.410047 1.957548 0.727288 1.321587 0.000000 0.000000 0.000000 3.186078 -0.615657 11.227426 -4.308751 2.370858 0.324018 1.842385 -0.847660 -0.096412 0.000000 0.000000 0.000000
